<svg xmlns="http://www.w3.org/2000/svg"
    width="64"
    height="65"
    viewBox="0 0 64 65"
    fill="none">

    <path
        fill-rule="evenodd"
        clip-rule="evenodd"
        d="M30.3491 0.248768C28.9154 0.707188 27.7369 1.65454 27.0014 2.94026C26.2571 4.24112 26.2524 4.31903 26.25 15.4289L26.2479 25.536L25.8824 25.9015L25.5169 26.267L15.4097 26.2691C4.31413 26.2715 4.22034 26.2772 2.93312 27.0137C-0.977706 29.2513 -0.977706 34.7871 2.93312 37.0246C4.22034 37.7612 4.31413 37.7668 15.4097 37.7692L25.5169 37.7713L25.8824 38.1368L26.2479 38.5023L26.25 48.6094C26.2524 59.705 26.258 59.7988 26.9945 61.086C29.2321 64.9969 34.7679 64.9969 37.0055 61.086C37.742 59.7988 37.7476 59.705 37.75 48.6094L37.7521 38.5023L38.1176 38.1368L38.4832 37.7713L48.5903 37.7692C59.6859 37.7668 59.7797 37.7612 61.0669 37.0246C64.9777 34.7871 64.9777 29.2513 61.0669 27.0137C59.7797 26.2772 59.6859 26.2715 48.5903 26.2691L38.4832 26.267L38.1176 25.9015L37.7521 25.536L37.75 15.4289C37.7476 4.33328 37.742 4.2395 37.0055 2.95227C35.6651 0.609402 32.8266 -0.5434 30.3491 0.248768Z"
        fill="white"/>

</svg>