<svg xmlns="http://www.w3.org/2000/svg"
    width="700"
    height="250"
    viewBox="0 0 700 250"
    fill="none">

    <path
        fill-rule="evenodd"
        clip-rule="evenodd"
        d="M46.8959 66.1299C33.9629 71.8379 37.8129 90.2269 51.9419 90.2269C56.6859 90.2269 57.7489 89.8349 60.5149 87.0699C70.4359 77.1489 59.6169 60.5139 46.8959 66.1299ZM169.52 68.2429C165.463 68.9779 161.732 69.9909 161.228 70.4949C158.928 72.7949 160.724 154.853 163.193 160.227C173.439 182.532 198.568 192.003 219.193 181.333L222.491 179.627L218.143 174.79C215.751 172.13 212.724 167.936 211.415 165.47L209.037 160.986L202.903 161.479C188.335 162.648 183.411 155.082 183.402 131.516L183.396 117.805L192.125 117.516L200.854 117.227L202.063 111.774C202.727 108.775 203.383 103.6 203.52 100.274L203.769 94.2269L193.582 93.9419L183.396 93.6569V80.1919V66.7269L180.146 66.8169C178.359 66.8669 173.577 67.5089 169.52 68.2429ZM320.396 67.8239C317.371 68.2929 313.546 69.0579 311.896 69.5239L308.896 70.3709L308.638 128.049L308.38 185.727H320.388H332.396V126.227V66.7269L329.146 66.8489C327.358 66.9159 323.421 67.3549 320.396 67.8239ZM352.396 67.8239C349.371 68.2929 345.546 69.0579 343.896 69.5239L340.896 70.3699L340.633 107.226C340.297 154.442 341.186 158.634 354.332 171.803C383.567 201.09 431.833 181.114 431.833 139.727C431.833 107.322 400.257 85.1649 370.396 96.6169C367.371 97.7769 364.783 98.7259 364.646 98.7259C364.509 98.7269 364.396 91.5269 364.396 82.7269V66.7269L361.146 66.8489C359.358 66.9159 355.421 67.3549 352.396 67.8239ZM47.4739 95.2789C43.9409 96.0449 40.6739 97.0489 40.2129 97.5099C39.7519 97.9709 39.4919 117.896 39.6349 141.788L39.8959 185.227L51.6459 185.509L63.3959 185.79V139.759V93.7269L58.6459 93.8059C56.0339 93.8499 51.0059 94.5129 47.4739 95.2789ZM99.7339 95.7339C77.1409 103.109 71.3959 115.605 71.3959 157.364V185.79L83.1459 185.509L94.8959 185.227L95.3959 156.548C95.8689 129.435 96.0099 127.715 97.9879 125.048C105.243 115.264 118.884 114.948 126.094 124.396L128.896 128.067L129.189 156.897L129.483 185.727H141.439H153.396L153.372 157.977C153.358 142.715 152.892 128.254 152.336 125.842C146.994 102.669 122.114 88.4279 99.7339 95.7339ZM246.396 95.1599C200.601 107.923 201.092 172.255 247.076 184.232C267.344 189.511 289.06 179.115 298.915 159.415C303.401 150.449 303.349 150.088 297.31 148.294C291.815 146.662 280.28 144.405 280.042 144.914C273.607 158.688 259.263 166.354 250.404 160.753C248.566 159.591 246.123 161.689 274.896 139.712C288.096 129.63 299.101 121.216 299.352 121.014C300.471 120.116 295.398 112.708 289.907 107.223C278.341 95.6719 261.406 90.9769 246.396 95.1599ZM470.13 94.7579C457.09 98.0279 445.776 108.497 441.336 121.4C439.588 126.482 439.396 129.945 439.396 156.384V185.727H450.838H462.28L462.588 157.977C462.942 126.049 463.256 124.652 471.089 120.061C474.955 117.795 476.322 117.527 481.779 117.966L488.037 118.468L490.415 113.984C491.724 111.518 494.775 107.297 497.196 104.605L501.598 99.7089L495.747 97.0279C489.281 94.0649 477.173 92.9919 470.13 94.7579ZM524.42 95.2729C502.537 101.381 487.417 124.852 491.315 146.664C496.523 175.806 526.669 193.178 553.338 182.406L559.396 179.959V182.843V185.727H570.952H582.509L582.193 156.977C581.83 123.977 581.444 122.129 572.652 111.267C561.112 97.0099 541.499 90.5069 524.42 95.2729ZM606.968 95.7449C588.901 102.799 583.371 127.277 596.743 141.007C603.429 147.874 606.976 149.108 621.737 149.706C635.051 150.246 638.396 151.555 638.396 156.227C638.396 161.122 635.993 161.71 614.9 161.976L594.903 162.227L593.601 166.205C592.884 168.393 592.029 173.68 591.699 177.955L591.1 185.727H614.066C649.698 185.727 661.353 178.936 661.386 158.155C661.416 139.65 651.166 130.644 629.055 129.748C615.741 129.208 612.396 127.899 612.396 123.227C612.396 118.442 614.993 117.746 633.832 117.48L651.767 117.227L653.044 112.227C653.746 109.477 654.621 104.19 654.987 100.477L655.654 93.7269L633.775 93.7739C614.629 93.8149 611.281 94.0609 606.968 95.7449ZM265.741 118.594C267.412 119.251 238.569 142.727 236.09 142.727C233.468 142.727 236.697 130.643 240.733 125.352C245.556 119.028 258.178 115.617 265.741 118.594ZM396.186 119.635C418.235 130.977 409.121 163.322 384.38 161.532C366.305 160.225 357.976 139.04 369.953 124.835C375.726 117.988 388.183 115.519 396.186 119.635ZM547.469 120.363C567.579 131.308 559.437 161.688 536.396 161.682C520.381 161.678 509.934 145.153 516.659 130.463C522.099 118.581 535.889 114.061 547.469 120.363Z"
        fill="#02AA4D"/>

</svg>
