<svg width="180" height="180" viewBox="0 0 180 180" fill="none" xmlns="http://www.w3.org/2000/svg">
<path fill-rule="evenodd" clip-rule="evenodd" d="M76.4569 41.2139C48.9431 43.984 32.1275 73.2958 43.7092 98.2972C53.9775 120.463 81.7519 128.75 101.961 115.676C102.708 115.193 103.38 114.798 103.455 114.798C103.529 114.798 108.908 120.094 115.409 126.568C125.176 136.294 127.415 138.429 128.302 138.86C135.388 142.306 142.587 134.912 139.087 127.784C138.715 127.027 135.93 124.123 126.682 114.853L114.756 102.898L115.293 101.965C131.778 73.3056 109.158 37.9213 76.4569 41.2139ZM84.0351 54.4738C104.753 57.5849 114.704 81.4134 102.164 97.8863C87.0341 117.762 55.3436 108.463 53.3184 83.554C51.9312 66.4894 67.2805 51.9578 84.0351 54.4738Z" fill="white"/>
</svg>
